<svg width="178" height="45" viewBox="0 0 178 45" fill="none" xmlns="http://www.w3.org/2000/svg">
<path d="M122.871 45C115.526 45 109.549 38.9593 109.549 31.5365V0H116.228V31.5365C116.228 35.2409 119.206 38.2507 122.871 38.2507V45Z" fill="#F3F1EE"/>
<path d="M34.986 12.2996C36.4063 10.5503 36.1545 7.96851 34.4235 6.53311C32.6925 5.09772 30.1378 5.35222 28.7175 7.10157C27.2972 8.85092 27.549 11.4327 29.28 12.8681C31.011 14.3035 33.5656 14.0489 34.986 12.2996Z" fill="#F3F1EE"/>
<path d="M172.946 44.3616C175.737 44.3616 178 42.0749 178 39.2541C178 36.4332 175.737 34.1465 172.946 34.1465C170.155 34.1465 167.892 36.4332 167.892 39.2541C167.892 42.0749 170.155 44.3616 172.946 44.3616Z" fill="#F3F1EE"/>
<path d="M35.1974 18.5781H28.5189V44.4879H35.1974V18.5781Z" fill="#F3F1EE"/>
<path d="M19.1121 34.834C17.9666 36.8686 15.8076 38.2507 13.3292 38.2507C9.66365 38.2507 6.68541 35.2409 6.68541 31.5365C6.68541 27.8321 9.66365 24.8223 13.3292 24.8223C15.7451 24.8223 17.8625 26.1343 19.0288 28.0917H26.2071C24.6937 22.3317 19.4939 18.073 13.3292 18.073C5.9773 18.066 0 24.1067 0 31.5365C0 38.9664 5.9773 45 13.3222 45C19.5425 45 24.7839 40.6712 26.2418 34.834H19.1052H19.1121Z" fill="#F3F1EE"/>
<path d="M52.7405 25.2292L55.7882 19.2166C54.2678 18.4869 52.5669 18.073 50.7758 18.073C48.9847 18.073 47.263 18.4869 45.7427 19.2236V18.5781H39.0642V44.3546H45.7427V29.8948H45.7566C45.7566 27.0954 48.0128 24.8223 50.7758 24.8223C51.477 24.8223 52.1365 24.9696 52.7405 25.2292Z" fill="#F3F1EE"/>
<path d="M167.774 25.2292L170.822 19.2166C169.301 18.4869 167.601 18.073 165.809 18.073C164.018 18.073 162.297 18.4869 160.776 19.2236V18.5781H154.098V44.3546H160.776V29.8948H160.79C160.79 27.0954 163.046 24.8223 165.809 24.8223C166.511 24.8223 167.17 24.9696 167.774 25.2292Z" fill="#F3F1EE"/>
<path d="M143.65 18.4238V19.7147C141.692 18.5711 139.422 17.9116 137.006 17.9116C129.661 17.9116 123.684 23.9523 123.684 31.3751C123.684 38.798 129.661 44.8387 137.006 44.8387C139.422 44.8387 141.692 44.1792 143.65 43.0356V44.3265H150.328V18.4238H143.65ZM137.006 38.0894C133.34 38.0894 130.362 35.0795 130.362 31.3751C130.362 27.6707 133.34 24.6609 137.006 24.6609C140.671 24.6609 143.65 27.6707 143.65 31.3751C143.65 35.0795 140.671 38.0894 137.006 38.0894Z" fill="#F3F1EE"/>
<path d="M74.0949 34.834C72.9494 36.8686 70.7904 38.2507 68.312 38.2507C64.6465 38.2507 61.6682 35.2409 61.6682 31.5365C61.6682 27.8321 64.6465 24.8223 68.312 24.8223C70.7279 24.8223 72.8453 26.1343 74.0116 28.0917H81.1899C79.6765 22.3317 74.4767 18.073 68.312 18.073C60.967 18.073 54.9897 24.1137 54.9897 31.5365C54.9897 38.9593 60.967 45 68.312 45C74.5323 45 79.7737 40.6712 81.2316 34.834H74.0949Z" fill="#F3F1EE"/>
<path d="M94.4219 44.9299C88.396 44.9299 83.5017 39.9767 83.5017 33.8939V18.5852H90.1802V33.8939C90.1802 36.2583 92.0824 38.1806 94.4219 38.1806C96.7615 38.1806 98.6636 36.2583 98.6636 33.8939V18.5852H105.342V33.8939C105.342 39.9837 100.441 44.9299 94.4219 44.9299Z" fill="#F3F1EE"/>
</svg>
