<svg width="197" height="53" viewBox="0 0 197 53" fill="none" xmlns="http://www.w3.org/2000/svg">
<path d="M18.5554 17.3226V24.0762L31.8943 24.1309C31.5653 28.271 27.448 31.3203 22.4521 31.3203C16.1382 31.3203 11.5816 26.6896 11.5816 20.2625C11.5816 13.8354 15.9728 9.36892 22.0128 9.36892C25.9094 9.36892 29.4239 11.4937 30.4109 14.3808L41.0607 12.3655C39.2503 5.17412 31.3466 0 22.0679 0C9.2787 0 0 8.17069 0 20.2625C0 32.3544 9.2787 40.744 22.0679 40.744C35.5723 40.744 44.4117 31.1581 42.9834 17.3226H18.5554Z" fill="#F3F1EE"/>
<path d="M58.1938 10.9482C49.7405 10.9482 44.3053 14.9789 44.3053 21.2437H54.2419C54.2419 18.8472 55.8337 17.4301 58.0854 17.4301C60.4474 17.4301 61.8186 18.8472 61.8186 20.9153V22.1683L56.8778 22.7684C47.6011 24.0213 43.1548 26.9084 43.1548 32.3543C43.1548 37.4756 46.9983 40.4155 52.597 40.4155C56.275 40.4155 59.6791 39.055 61.2709 36.4396H61.8205V39.7626H72.1414V21.2965C72.1414 14.9789 66.5958 10.9482 58.1977 10.9482H58.1938ZM61.8166 29.2502C61.8166 32.1373 59.6752 34.2621 56.602 34.2621C54.3523 34.2621 53.0343 33.1186 53.0343 31.375C53.0343 29.7408 54.2419 28.5973 57.262 28.2161L61.8186 27.5633V29.2521L61.8166 29.2502Z" fill="#F3F1EE"/>
<path d="M85.2596 15.6338H84.6548V11.6579H74.4443V39.7647H84.71V25.8198C84.71 22.1703 86.9066 19.7191 90.0349 19.7191C91.3528 19.7191 93.3288 20.155 94.9757 20.8626V11.8202C94.097 11.3843 92.9446 11.1125 91.8473 11.1125C88.9928 11.1125 86.4672 12.8562 85.2596 15.6338Z" fill="#F3F1EE"/>
<path d="M110.292 10.9482C101.839 10.9482 96.4039 14.9789 96.4039 21.2437H106.341C106.341 18.8472 107.932 17.4301 110.184 17.4301C112.436 17.4301 113.917 18.8472 113.917 20.9153V22.1683L108.976 22.7684C99.6978 24.0213 95.2515 26.9084 95.2515 32.3543C95.2515 37.4756 99.0949 40.4155 104.694 40.4155C108.372 40.4155 111.776 39.055 113.368 36.4396H113.917V39.7626H124.238V21.2965C124.238 14.9789 118.692 10.9482 110.294 10.9482H110.292ZM113.915 29.2502C113.915 32.1373 111.774 34.2621 108.701 34.2621C106.449 34.2621 105.133 33.1186 105.133 31.375C105.133 29.7408 106.341 28.5973 109.361 28.2161L113.917 27.5633V29.2521L113.915 29.2502Z" fill="#F3F1EE"/>
<path d="M147.074 15.1432H146.525C144.438 12.4751 141.749 11.0032 137.851 11.0032C130.44 11.0032 125.388 16.3962 125.388 25.7104C125.388 34.4792 130.493 39.9817 137.904 39.9817C141.473 39.9817 144.052 38.674 146.138 36.3323H146.686V39.2194C146.686 42.8141 144.436 45.2106 140.867 45.2106C138.123 45.2106 136.036 43.7407 135.376 41.3422L125.495 42.7047C126.539 49.3507 132.467 53.0001 141.359 53.0001C150.967 53.0001 156.95 48.0977 156.95 39.6006V11.656H147.068V15.1413L147.074 15.1432ZM141.42 31.8111C138.071 31.8111 135.711 29.2504 135.711 25.7104C135.711 22.1704 138.071 19.5003 141.42 19.5003C144.769 19.5003 147.129 22.1157 147.129 25.7104C147.129 29.3051 144.714 31.8111 141.42 31.8111Z" fill="#F3F1EE"/>
<path d="M174.469 10.9482C165.082 10.9482 158.494 16.6677 158.494 25.6007C158.494 34.5338 164.972 40.4702 174.359 40.4702C181.604 40.4702 187.424 37.2567 188.852 31.9731L180.015 30.3937C179.136 32.192 177.379 33.443 174.908 33.443C171.833 33.443 169.747 31.5372 169.089 28.4859H189.786C189.896 27.9405 189.949 26.5253 189.949 25.7083C189.949 16.7205 183.801 10.9463 174.469 10.9463V10.9482ZM168.981 23.0401C169.53 19.936 171.396 17.9754 174.25 17.9754C177.105 17.9754 179.302 20.2624 179.575 23.0401H168.981Z" fill="#F3F1EE"/>
<path d="M192.398 4.80859C189.725 4.80859 187.82 6.6988 187.82 9.2751C187.82 11.8514 189.725 13.7631 192.398 13.7631C195.071 13.7631 197 11.9061 197 9.2751C197 6.64407 195.095 4.80859 192.398 4.80859ZM192.41 13.1435C190.127 13.1435 188.509 11.5406 188.509 9.27315C188.509 7.00569 190.125 5.43606 192.41 5.43606C194.695 5.43606 196.311 7.06042 196.311 9.27315C196.311 11.4859 194.695 13.1435 192.41 13.1435Z" fill="#F3F1EE"/>
<path d="M194.748 8.16884C194.748 7.1954 193.98 6.48779 192.954 6.48779H190.536V11.9708H191.25V9.78148H192.108L193.791 11.9708H194.705L192.922 9.75998H192.956C193.98 9.75998 194.75 9.09733 194.75 8.16884H194.748ZM192.855 9.18725H191.251V7.10939H192.855C193.513 7.10939 194.037 7.52965 194.037 8.15907C194.037 8.78849 193.535 9.18725 192.855 9.18725Z" fill="#F3F1EE"/>
</svg>
