<svg width="229" height="35" viewBox="0 0 229 35" fill="none" xmlns="http://www.w3.org/2000/svg">
<path d="M34.3218 0.302734L34.4255 1.86783C32.9039 2.20357 31.8773 2.5999 31.3407 3.05428C30.8041 3.50866 30.4853 4.24073 30.3816 5.25047C30.2079 7.10082 30.1223 10.3497 30.1223 14.9945V34.23H27.2708C22.5347 26.9599 16.0203 17.6375 7.72501 6.26021C7.65501 10.1654 7.62132 13.6137 7.62132 16.6101C7.62132 22.6685 7.77685 27.7172 8.08793 31.7562L12.2356 32.8669L11.9245 34.331C10.4728 34.23 8.76192 34.1796 6.79178 34.1796C4.09581 34.1796 1.91829 34.23 0.259228 34.331L0.155537 32.7659C1.60722 32.3292 2.58451 31.9152 3.08482 31.529C3.58513 31.1428 3.94027 30.4258 4.14765 29.3833C4.52872 27.2628 4.71796 23.0396 4.71796 16.711C4.71796 10.3825 4.45873 5.9068 3.94027 2.7766L0 1.76686L0.311074 0.403709H8.399L27.1671 27.3638C27.1671 26.8261 27.1749 25.2004 27.1931 22.4918C27.2112 19.7832 27.219 17.2664 27.219 14.944C27.219 9.15564 27.0816 5.13182 26.8042 2.87757L22.9158 1.76686L23.2269 0.302734C24.7122 0.403709 26.545 0.454196 28.7225 0.454196C30.9 0.454196 32.8702 0.403709 34.3218 0.302734Z" fill="#F3F1EE"/>
<path d="M71.8062 25.5465L73.88 25.8494L72.6357 34.3817C68.247 34.2479 63.4072 34.1797 58.1189 34.1797C52.8306 34.1797 49.4788 34.2302 47.9572 34.3312L47.8535 32.7661C49.1315 32.395 50.0128 31.9836 50.4976 31.5292C50.9824 31.0748 51.309 30.3604 51.4827 29.3835C51.76 27.5988 51.8974 22.7873 51.8974 14.9442C51.8974 9.15584 51.76 5.13202 51.4827 2.87777L47.5942 1.76705L47.9053 0.302928C50.2902 0.403903 53.5046 0.45439 57.5486 0.45439C62.5595 0.45439 67.1401 0.386232 71.2877 0.252441L72.3765 7.92648L70.3026 8.2294C69.5431 5.73786 68.3507 3.92033 66.7253 2.77679H56.4598C56.2862 3.38264 56.1488 4.2081 56.0451 5.25066C55.8714 7.57307 55.7859 10.9557 55.7859 15.3986L67.3474 15.2471L66.829 18.0744L55.7859 17.62C55.7859 25.1249 55.9077 29.8707 56.1488 31.8573H68.0733C68.9028 31.2843 69.6623 30.4185 70.3545 29.2573C71.0466 28.0961 71.5288 26.8591 71.8062 25.5465Z" fill="#F3F1EE"/>
<path d="M103.017 17.5695C105.125 20.7679 106.88 23.325 108.28 25.2435C109.679 27.162 110.95 28.6438 112.09 29.6864C113.231 30.729 114.19 31.4282 114.968 31.7816C115.745 32.135 116.686 32.395 117.793 32.5642V34.2807C116.272 34.2126 115.027 34.1797 114.06 34.1797C113.094 34.1797 111.727 34.2126 110.068 34.2807C106.613 30.0398 102.965 24.8068 99.1289 18.5792C98.162 18.7484 97.0551 18.8645 95.8108 18.9327C95.8108 25.0921 95.9326 29.3658 96.1737 31.7564L100.892 32.8671L100.581 34.3312C99.0952 34.2302 96.9851 34.1797 94.2554 34.1797C91.5257 34.1797 89.5037 34.2302 87.9821 34.3312L87.8784 32.7661C89.1564 32.395 90.0377 31.9836 90.5225 31.5292C91.0073 31.0748 91.3339 30.3604 91.5076 29.3835C91.7849 27.5988 91.9223 22.7873 91.9223 14.9442C91.9223 9.15583 91.7849 5.13202 91.5076 2.87777L87.6191 1.76705L87.9302 0.302928C89.4156 0.403903 91.422 0.45439 93.9443 0.45439C94.7738 0.421573 95.6371 0.386232 96.5366 0.353416C97.4361 0.320599 98.1438 0.295355 98.6623 0.277685C99.1807 0.260014 99.6655 0.252441 100.114 0.252441C103.536 0.252441 106.291 0.95926 108.383 2.3729C110.475 3.78654 111.52 5.88932 111.52 8.68378C111.52 12.4526 109.516 15.1133 105.506 16.6607C104.606 16.9965 103.777 17.2994 103.017 17.5695ZM95.8108 16.2064C96.7777 16.2745 97.5035 16.3073 97.9883 16.3073C99.4063 16.3073 100.599 16.2064 101.566 16.0044C103.258 15.4995 104.591 14.6665 105.558 13.5053C106.525 12.3441 107.009 10.9229 107.009 9.23914C107.009 7.25247 106.317 5.66213 104.936 4.46811C103.554 3.27409 101.566 2.67582 98.9733 2.67582C97.7627 2.67582 96.9332 2.69349 96.4848 2.72631C96.3111 3.26399 96.1737 4.10713 96.07 5.25066C95.8963 7.10101 95.8108 10.3499 95.8108 14.9947V16.2064Z" fill="#F3F1EE"/>
<path d="M161.914 17.0646C161.914 21.3737 160.885 24.933 158.829 27.7426C156.773 30.5522 154.067 32.496 150.715 33.5739C148.608 34.2479 146.757 34.5836 145.168 34.5836C140.294 34.5836 136.458 32.9933 133.658 29.8126C130.858 26.6319 129.458 22.5349 129.458 17.519C129.458 13.2099 130.488 9.6506 132.543 6.841C134.599 4.03139 137.305 2.08764 140.657 1.00974C142.765 0.335739 144.616 0 146.205 0C151.078 0 154.915 1.59034 157.714 4.77103C160.514 7.95171 161.914 12.0487 161.914 17.0646ZM157.09 17.721C157.09 13.2099 155.993 9.5673 153.797 6.79051C151.602 4.01372 148.31 2.62533 143.921 2.62533C143.506 2.62533 142.814 2.65814 141.847 2.7263C139.532 3.53409 137.692 5.1825 136.325 7.67403C134.959 10.1656 134.278 13.2276 134.278 16.8627C134.278 21.3737 135.374 25.0163 137.57 27.7931C139.765 30.5699 143.058 31.9583 147.446 31.9583C147.861 31.9583 148.553 31.9255 149.52 31.8573C151.835 31.0495 153.676 29.4011 155.042 26.9096C156.408 24.4181 157.09 21.356 157.09 17.721Z" fill="#F3F1EE"/>
<path d="M200.691 25.5463L202.765 25.8492L201.78 34.3815C197.392 34.2477 192.552 34.1796 187.263 34.1796C181.975 34.1796 178.45 34.2477 177.102 34.3815L176.998 32.7659C178.276 32.3948 179.157 31.9834 179.642 31.529C180.127 31.0746 180.454 30.3602 180.627 29.3833C180.905 27.5986 181.042 22.7871 181.042 14.944C181.042 9.15564 180.905 5.13182 180.627 2.87757L176.739 1.76686L177.05 0.302734C178.535 0.403708 180.542 0.454196 183.064 0.454196C186.035 0.454196 188.267 0.403708 189.752 0.302734L189.856 1.86783C188.127 2.27173 186.96 2.70087 186.356 3.15525C185.752 3.60964 185.397 4.30888 185.293 5.25047C185.052 7.84298 184.93 11.0893 184.93 14.9945C184.93 23.9812 185.068 29.6029 185.345 31.8571H196.181C197.218 31.2841 198.133 30.4258 198.929 29.2823C199.725 28.1388 200.31 26.8917 200.691 25.5463Z" fill="#F3F1EE"/>
<path d="M224.8 31.7562L229 32.8669L228.689 34.331C227.167 34.23 225.249 34.1796 222.934 34.1796C220.168 34.1796 218.027 34.23 216.505 34.331L216.401 32.7659C217.679 32.3948 218.561 31.9834 219.045 31.529C219.53 31.0746 219.857 30.3602 220.031 29.3833C220.342 27.3638 220.497 23.5949 220.497 18.0742C220.497 10.13 220.342 5.06619 220.031 2.87757L216.142 1.76686L216.453 0.302734C217.939 0.403709 219.997 0.454196 222.623 0.454196C225.111 0.454196 227.115 0.403709 228.637 0.302734L228.741 1.86783C227.219 2.20357 226.192 2.5999 225.656 3.05428C225.119 3.50866 224.8 4.24073 224.697 5.25047C224.489 7.4719 224.386 11.7305 224.386 18.0237C224.386 24.3169 224.523 29.199 224.8 31.7562Z" fill="#F3F1EE"/>
</svg>
