<svg width="149" height="41" viewBox="0 0 149 41" fill="none" xmlns="http://www.w3.org/2000/svg">
<path d="M0 20.3993C0 14.5194 1.95219 9.65057 5.86239 5.79848C9.78421 1.93476 14.5717 0 20.225 0C25.8782 0 30.9388 1.95219 34.7967 5.85658C38.672 9.72611 40.6068 14.5717 40.6068 20.3993C40.6068 26.2268 38.6662 31.1073 34.7909 35.0407C30.9155 38.916 26.221 40.8566 20.7072 40.8566C14.6182 40.8566 9.65057 38.9567 5.79848 35.1569C1.93476 31.3339 0 26.4185 0 20.3993ZM5.25814 19.6904C5.25814 25.1752 6.82106 29.6141 9.94689 33.0072C13.1076 36.3828 16.9422 38.0736 21.4509 38.0736C25.5005 38.0736 28.8297 36.4932 31.4268 33.3325C34.0414 30.137 35.3545 26.0525 35.3545 21.079C35.3545 15.7396 33.809 11.3646 30.7238 7.95403C27.6503 4.50283 23.8737 2.77723 19.3883 2.77723C15.3154 2.77723 11.9456 4.28204 9.27873 7.29748C6.60608 10.3129 5.26976 14.4439 5.26976 19.6904H5.25814Z" fill="#2D2C29"/>
<path d="M44.0464 40.0083C45.2607 38.7359 45.9521 36.7489 46.1206 34.0414C46.231 32.1879 46.2832 30.1079 46.2832 27.8013V12.9449C46.2832 10.6209 46.231 8.52923 46.1206 6.6758C45.9579 3.9683 45.2665 1.98124 44.0464 0.708832H44.7261C44.8888 0.708832 45.464 0.755313 46.4459 0.842464C47.4278 0.935426 48.1367 0.976096 48.5724 0.976096C49.0082 0.976096 49.7054 0.929616 50.6699 0.842464C51.6343 0.749502 52.1979 0.708832 52.3606 0.708832H53.0404C51.6402 2.16136 50.9139 4.15422 50.8616 6.6758C50.7861 9.94689 50.7512 12.0385 50.7512 12.9449V27.8013C50.7512 28.6903 50.7861 30.7703 50.8616 34.0414C50.9139 36.5688 51.6402 38.5558 53.0404 40.0083H52.3606C52.1979 40.0083 51.6343 39.9619 50.6699 39.8747C49.7054 39.7817 49.0082 39.7411 48.5724 39.7411C48.1367 39.7411 47.4278 39.7876 46.4459 39.8747C45.464 39.9677 44.8946 40.0083 44.7261 40.0083H44.0464ZM52.0817 19.1849L58.3218 12.8868C61.3546 9.76097 63.3243 7.6519 64.2365 6.56541C65.2881 5.293 65.8168 4.27623 65.8168 3.51511C65.8168 2.60873 65.3869 1.67331 64.5386 0.708832H65.2997C65.7703 0.708832 66.5024 0.755313 67.4959 0.842464C68.4836 0.935426 69.0821 0.976096 69.2796 0.976096C69.5004 0.976096 70.0349 0.929616 70.889 0.842464C71.7431 0.749502 72.359 0.708832 72.7424 0.708832H73.5617L67.9491 6.56541L61.7323 12.9449L56.4974 18.2321C61.128 24.6813 65.6657 30.3578 70.0988 35.2673C72.4229 37.847 74.1601 39.4622 75.3047 40.1187C74.561 40.6068 73.6081 40.8566 72.4403 40.8566C70.186 40.8566 67.7516 39.3111 65.137 36.226C61.1571 31.5953 56.8053 25.913 52.0817 19.1908V19.1849Z" fill="#2D2C29"/>
<path d="M78.8721 40.0083C80.0864 38.7359 80.7778 36.7489 80.9463 34.0414C81.0567 32.1879 81.109 30.1079 81.109 27.8013V12.9449C81.109 10.6209 81.0567 8.52922 80.9463 6.6758C80.7836 3.9683 80.0922 1.98124 78.8721 0.708832H79.5519C79.7146 0.708832 80.2898 0.755313 81.2659 0.842464C82.2478 0.935426 82.9566 0.976096 83.3924 0.976096C83.8281 0.976096 84.5253 0.929616 85.4898 0.842464C86.4543 0.749502 87.0179 0.708832 87.1805 0.708832H87.8603C86.4601 2.16136 85.7338 4.15422 85.6815 6.6758C85.606 9.94689 85.5711 12.0385 85.5711 12.9449V27.8013C85.5711 28.6903 85.606 30.7703 85.6815 34.0414C85.7338 36.5688 86.4601 38.5558 87.8603 40.0083H87.1805C87.0179 40.0083 86.4543 39.9619 85.4898 39.8747C84.5253 39.7817 83.8281 39.7411 83.3924 39.7411C82.9566 39.7411 82.2478 39.7876 81.2659 39.8747C80.284 39.9677 79.7146 40.0083 79.5519 40.0083H78.8721ZM86.9133 19.1849L93.1533 12.8868C96.1862 9.76097 98.1558 7.6519 99.068 6.56541C100.12 5.293 100.648 4.27623 100.648 3.51511C100.648 2.60873 100.218 1.67331 99.3701 0.708832H100.131C100.602 0.708832 101.334 0.755313 102.327 0.842464C103.315 0.935426 103.914 0.976096 104.111 0.976096C104.332 0.976096 104.866 0.929616 105.721 0.842464C106.575 0.749502 107.191 0.708832 107.574 0.708832H108.393L102.781 6.56541L96.5638 12.9449L91.329 18.2321C95.9596 24.6813 100.497 30.3578 104.93 35.2673C107.254 37.847 108.992 39.4622 110.136 40.1187C109.393 40.6068 108.44 40.8566 107.272 40.8566C105.018 40.8566 102.583 39.3111 99.9686 36.226C95.9887 31.5953 91.6369 25.913 86.9133 19.1908V19.1849Z" fill="#2D2C29"/>
<path d="M108.393 20.3993C108.393 14.5194 110.345 9.65057 114.256 5.79848C118.183 1.92895 122.965 0 128.618 0C134.271 0 139.332 1.95219 143.19 5.85658C147.065 9.72611 149 14.5717 149 20.3993C149 26.2268 147.059 31.1073 143.184 35.0407C139.309 38.916 134.614 40.8566 129.1 40.8566C123.011 40.8566 118.044 38.9567 114.192 35.1569C110.322 31.3397 108.387 26.4185 108.387 20.4051L108.393 20.3993ZM113.651 19.6904C113.651 25.1752 115.214 29.6141 118.34 33.0072C121.501 36.3828 125.335 38.0736 129.844 38.0736C133.894 38.0736 137.223 36.4932 139.82 33.3325C142.435 30.137 143.742 26.0525 143.742 21.079C143.742 15.7396 142.196 11.3646 139.111 7.95403C136.038 4.50283 132.261 2.77723 127.776 2.77723C123.703 2.77723 120.333 4.28204 117.666 7.29748C114.993 10.3129 113.657 14.4439 113.657 19.6904H113.651Z" fill="#2D2C29"/>
</svg>
